G04 #@! TF.FileFunction,Drawing*
%FSLAX46Y46*%
G04 Gerber Fmt 4.6, Leading zero omitted, Abs format (unit mm)*
G04 Created by KiCad (PCBNEW 201611132049+7352~55~ubuntu14.04.1-product) date Wed Nov 16 08:41:23 2016*
%MOMM*%
%LPD*%
G01*
G04 APERTURE LIST*
%ADD10C,0.100000*%
%ADD11C,0.300000*%
G04 APERTURE END LIST*
D10*
D11*
X139678571Y-96335714D02*
X139750000Y-96407142D01*
X139821428Y-96550000D01*
X139821428Y-96907142D01*
X139750000Y-97050000D01*
X139678571Y-97121428D01*
X139535714Y-97192857D01*
X139392857Y-97192857D01*
X139178571Y-97121428D01*
X138321428Y-96264285D01*
X138321428Y-97192857D01*
X139821428Y-98550000D02*
X139821428Y-97835714D01*
X139107142Y-97764285D01*
X139178571Y-97835714D01*
X139250000Y-97978571D01*
X139250000Y-98335714D01*
X139178571Y-98478571D01*
X139107142Y-98550000D01*
X138964285Y-98621428D01*
X138607142Y-98621428D01*
X138464285Y-98550000D01*
X138392857Y-98478571D01*
X138321428Y-98335714D01*
X138321428Y-97978571D01*
X138392857Y-97835714D01*
X138464285Y-97764285D01*
X138464285Y-99264285D02*
X138392857Y-99335714D01*
X138321428Y-99264285D01*
X138392857Y-99192857D01*
X138464285Y-99264285D01*
X138321428Y-99264285D01*
X139821428Y-100264285D02*
X139821428Y-100407142D01*
X139750000Y-100550000D01*
X139678571Y-100621428D01*
X139535714Y-100692857D01*
X139250000Y-100764285D01*
X138892857Y-100764285D01*
X138607142Y-100692857D01*
X138464285Y-100621428D01*
X138392857Y-100550000D01*
X138321428Y-100407142D01*
X138321428Y-100264285D01*
X138392857Y-100121428D01*
X138464285Y-100050000D01*
X138607142Y-99978571D01*
X138892857Y-99907142D01*
X139250000Y-99907142D01*
X139535714Y-99978571D01*
X139678571Y-100050000D01*
X139750000Y-100121428D01*
X139821428Y-100264285D01*
X139821428Y-101692857D02*
X139821428Y-101835714D01*
X139750000Y-101978571D01*
X139678571Y-102050000D01*
X139535714Y-102121428D01*
X139250000Y-102192857D01*
X138892857Y-102192857D01*
X138607142Y-102121428D01*
X138464285Y-102050000D01*
X138392857Y-101978571D01*
X138321428Y-101835714D01*
X138321428Y-101692857D01*
X138392857Y-101550000D01*
X138464285Y-101478571D01*
X138607142Y-101407142D01*
X138892857Y-101335714D01*
X139250000Y-101335714D01*
X139535714Y-101407142D01*
X139678571Y-101478571D01*
X139750000Y-101550000D01*
X139821428Y-101692857D01*
X139821428Y-103121428D02*
X139821428Y-103264285D01*
X139750000Y-103407142D01*
X139678571Y-103478571D01*
X139535714Y-103550000D01*
X139250000Y-103621428D01*
X138892857Y-103621428D01*
X138607142Y-103550000D01*
X138464285Y-103478571D01*
X138392857Y-103407142D01*
X138321428Y-103264285D01*
X138321428Y-103121428D01*
X138392857Y-102978571D01*
X138464285Y-102907142D01*
X138607142Y-102835714D01*
X138892857Y-102764285D01*
X139250000Y-102764285D01*
X139535714Y-102835714D01*
X139678571Y-102907142D01*
X139750000Y-102978571D01*
X139821428Y-103121428D01*
X138321428Y-105407142D02*
X139321428Y-105407142D01*
X139178571Y-105407142D02*
X139250000Y-105478571D01*
X139321428Y-105621428D01*
X139321428Y-105835714D01*
X139250000Y-105978571D01*
X139107142Y-106050000D01*
X138321428Y-106050000D01*
X139107142Y-106050000D02*
X139250000Y-106121428D01*
X139321428Y-106264285D01*
X139321428Y-106478571D01*
X139250000Y-106621428D01*
X139107142Y-106692857D01*
X138321428Y-106692857D01*
X138321428Y-107407142D02*
X139321428Y-107407142D01*
X139178571Y-107407142D02*
X139250000Y-107478571D01*
X139321428Y-107621428D01*
X139321428Y-107835714D01*
X139250000Y-107978571D01*
X139107142Y-108050000D01*
X138321428Y-108050000D01*
X139107142Y-108050000D02*
X139250000Y-108121428D01*
X139321428Y-108264285D01*
X139321428Y-108478571D01*
X139250000Y-108621428D01*
X139107142Y-108692857D01*
X138321428Y-108692857D01*
X140350000Y-90050000D02*
X140350000Y-115050000D01*
X147050000Y-90050000D02*
X137650000Y-90050000D01*
X147050000Y-115050000D02*
X137650000Y-115050000D01*
X140350000Y-115050000D02*
X139763579Y-113923496D01*
X140350000Y-115050000D02*
X140936421Y-113923496D01*
X140350000Y-90050000D02*
X139763579Y-91176504D01*
X140350000Y-90050000D02*
X140936421Y-91176504D01*
X145142857Y-119678571D02*
X144285714Y-119678571D01*
X144714285Y-119678571D02*
X144714285Y-118178571D01*
X144571428Y-118392857D01*
X144428571Y-118535714D01*
X144285714Y-118607142D01*
X146428571Y-118678571D02*
X146428571Y-119678571D01*
X146071428Y-118107142D02*
X145714285Y-119178571D01*
X146642857Y-119178571D01*
X147214285Y-119535714D02*
X147285714Y-119607142D01*
X147214285Y-119678571D01*
X147142857Y-119607142D01*
X147214285Y-119535714D01*
X147214285Y-119678571D01*
X147785714Y-118178571D02*
X148714285Y-118178571D01*
X148214285Y-118750000D01*
X148428571Y-118750000D01*
X148571428Y-118821428D01*
X148642857Y-118892857D01*
X148714285Y-119035714D01*
X148714285Y-119392857D01*
X148642857Y-119535714D01*
X148571428Y-119607142D01*
X148428571Y-119678571D01*
X148000000Y-119678571D01*
X147857142Y-119607142D01*
X147785714Y-119535714D01*
X149642857Y-118178571D02*
X149785714Y-118178571D01*
X149928571Y-118250000D01*
X150000000Y-118321428D01*
X150071428Y-118464285D01*
X150142857Y-118750000D01*
X150142857Y-119107142D01*
X150071428Y-119392857D01*
X150000000Y-119535714D01*
X149928571Y-119607142D01*
X149785714Y-119678571D01*
X149642857Y-119678571D01*
X149500000Y-119607142D01*
X149428571Y-119535714D01*
X149357142Y-119392857D01*
X149285714Y-119107142D01*
X149285714Y-118750000D01*
X149357142Y-118464285D01*
X149428571Y-118321428D01*
X149500000Y-118250000D01*
X149642857Y-118178571D01*
X151071428Y-118178571D02*
X151214285Y-118178571D01*
X151357142Y-118250000D01*
X151428571Y-118321428D01*
X151500000Y-118464285D01*
X151571428Y-118750000D01*
X151571428Y-119107142D01*
X151500000Y-119392857D01*
X151428571Y-119535714D01*
X151357142Y-119607142D01*
X151214285Y-119678571D01*
X151071428Y-119678571D01*
X150928571Y-119607142D01*
X150857142Y-119535714D01*
X150785714Y-119392857D01*
X150714285Y-119107142D01*
X150714285Y-118750000D01*
X150785714Y-118464285D01*
X150857142Y-118321428D01*
X150928571Y-118250000D01*
X151071428Y-118178571D01*
X153357142Y-119678571D02*
X153357142Y-118678571D01*
X153357142Y-118821428D02*
X153428571Y-118750000D01*
X153571428Y-118678571D01*
X153785714Y-118678571D01*
X153928571Y-118750000D01*
X154000000Y-118892857D01*
X154000000Y-119678571D01*
X154000000Y-118892857D02*
X154071428Y-118750000D01*
X154214285Y-118678571D01*
X154428571Y-118678571D01*
X154571428Y-118750000D01*
X154642857Y-118892857D01*
X154642857Y-119678571D01*
X155357142Y-119678571D02*
X155357142Y-118678571D01*
X155357142Y-118821428D02*
X155428571Y-118750000D01*
X155571428Y-118678571D01*
X155785714Y-118678571D01*
X155928571Y-118750000D01*
X156000000Y-118892857D01*
X156000000Y-119678571D01*
X156000000Y-118892857D02*
X156071428Y-118750000D01*
X156214285Y-118678571D01*
X156428571Y-118678571D01*
X156571428Y-118750000D01*
X156642857Y-118892857D01*
X156642857Y-119678571D01*
X143350000Y-117650000D02*
X157650000Y-117650000D01*
X143350000Y-114150000D02*
X143350000Y-120350000D01*
X157650000Y-114150000D02*
X157650000Y-120350000D01*
X157650000Y-117650000D02*
X156523496Y-118236421D01*
X157650000Y-117650000D02*
X156523496Y-117063579D01*
X143350000Y-117650000D02*
X144476504Y-118236421D01*
X143350000Y-117650000D02*
X144476504Y-117063579D01*
M02*
