G04 #@! TF.FileFunction,Profile,NP*
%FSLAX46Y46*%
G04 Gerber Fmt 4.6, Leading zero omitted, Abs format (unit mm)*
G04 Created by KiCad (PCBNEW 201611132049+7352~55~ubuntu14.04.1-product) date Wed Nov 16 08:41:23 2016*
%MOMM*%
%LPD*%
G01*
G04 APERTURE LIST*
%ADD10C,0.100000*%
%ADD11C,0.150000*%
G04 APERTURE END LIST*
D10*
D11*
X156820000Y-115030000D02*
G75*
G03X157620000Y-114230000I0J800000D01*
G01*
X157620000Y-105825000D02*
X157620000Y-114230000D01*
X143415000Y-114230000D02*
G75*
G03X144215000Y-115030000I800000J0D01*
G01*
X143415000Y-105825000D02*
X143415000Y-114230000D01*
X157620000Y-105825000D02*
G75*
G03X156820000Y-105025000I-800000J0D01*
G01*
X144215000Y-105025000D02*
G75*
G03X143415000Y-105825000I0J-800000D01*
G01*
X145515000Y-97925000D02*
G75*
G02X145715000Y-98125000I0J-200000D01*
G01*
X146285000Y-95145000D02*
X146285000Y-90825000D01*
X145715000Y-99125000D02*
X145015000Y-99825000D01*
X145715000Y-98125000D02*
X145715000Y-99125000D01*
X145015000Y-97925000D02*
X145515000Y-97925000D01*
X145015000Y-96425000D02*
X145015000Y-97925000D01*
X146285000Y-95145000D02*
X145015000Y-96415000D01*
X156015000Y-104225000D02*
G75*
G03X156815000Y-105025000I800000J0D01*
G01*
X144215000Y-105025000D02*
G75*
G03X145015000Y-104225000I0J800000D01*
G01*
X146285000Y-90825000D02*
G75*
G02X147085000Y-90025000I800000J0D01*
G01*
X155205000Y-90025000D02*
G75*
G02X156015000Y-90815000I10000J-800000D01*
G01*
X156015000Y-104225000D02*
X156015000Y-90825000D01*
X144215000Y-115030000D02*
X156820000Y-115030000D01*
X145015000Y-99825000D02*
X145015000Y-104225000D01*
X155215000Y-90025000D02*
X147085000Y-90025000D01*
M02*
